<?xml version="1.0" encoding="utf-8"?>
<svg version="1.1" id="Layer_1" x="0px" y="0px" viewBox="0 0 864 864" style="enable-background:new 0 0 864 864;" xmlns="http://www.w3.org/2000/svg">
  <style type="text/css">
	.st0{fill:#C1272D;}
	.st1{fill:#FFFFFF;}
</style>
  <circle class="st0" cx="432.3" cy="432.9" r="377" style="fill: rgb(2, 133, 205);"/>
  <path class="st1" d="M686.1,154.8c-15.3,7.2-32.6,14.4-44.7,23C557.6,238.3,493.8,316,447,407.9c-0.8,1.7-3.6,3.9-4.7,3.6 c-2.1-0.7-4.9-2.9-5.2-4.8c-5.4-34.6-12.2-69.1-15.1-103.9c-4-47.8,6.4-94.5,16.9-140.8c7.7-33.8,17.2-70.1,26.2-104.3 c-10.9-1-22-1.4-33.2-1.4c-74.3,0-143.5,21.5-201.9,58.6c37.3,114.5,101.2,216.6,189,302.6c-5.5,2-9.3,4.8-12.6,4.3 c-17-2.8-33.9-6.4-50.8-10c-68-14.2-131.6-40.2-191.7-74.5c-24.3-13.9-55.7-30-81.3-46.1C64.9,335,55,383,55,433.2 c0,35,4.8,68.9,13.7,101.1c39.3,5.7,85.2-1.1,123.3-8.9c61.3-12.5,119.7-34.5,176.9-59.4c18.7-8.1,37.3-16.4,58.1-25.5 c-4.5,9.9-7.9,17.2-11.3,24.5c-20.9,45.9-46.5,88.7-80.4,126.5c-36.6,40.7-79.1,74.6-121.9,108.2c-8.1,6.4-16.3,12.7-26.2,20.4 c60.5,51.7,137.5,84.5,222.1,89.5c20.4-50.8,33.4-103.4,38.5-158c5.3-57.3,13-114.4,3-172c-1.7-10-2.9-20.2-4.1-29.1 c15.5,13.9,31.6,26.9,45.9,41.6c37.3,38.4,62.9,85,87.1,131.9c21.1,40.8,38.7,83.4,57.4,125.5c68.8-44.7,122.1-111.2,150-189.8 c-65.5-54.6-142-87.7-224-109.1c-32.2-8.4-65.9-11.2-98.8-17c-3.2-0.6-5.8-4-8.7-6.1c2.4-2.1,4.5-5,7.3-6.3 c11.9-5.3,24.4-9.3,36-15.2c67.8-34.9,140.7-49,216-53.2c28.1-1.6,56.2-1.9,84.2-3.8c0.1,0,0.2,0,0.3,0 C782.2,273,741.8,205.6,686.1,154.8z" style="fill: rgb(0, 204, 250);"/>
</svg>